<svg width="1024" height="1024" viewBox="0 0 1024 1024" fill="none" xmlns="http://www.w3.org/2000/svg">
<rect width="1024" height="1024" rx="50" fill="url(#paint0_linear_12_2)"/>
<path d="M219.1 578.6C217.467 578.133 214.9 576.617 211.4 574.05C207.9 571.483 204.75 567.633 201.95 562.5C199.383 557.367 198.217 550.717 198.45 542.55C198.683 535.55 199.15 530.65 199.85 527.85C200.783 524.817 200.433 523.183 198.8 522.95C197.633 522.717 195.3 523.767 191.8 526.1C188.3 528.433 183.75 532.167 178.15 537.3C172.55 542.433 165.783 549.2 157.85 557.6C155.05 559.933 151.9 562.85 148.4 566.35C145.133 569.617 141.75 572.067 138.25 573.7C134.983 575.333 132.067 574.983 129.5 572.65L126 569.5C124.367 568.1 122.967 566.233 121.8 563.9C120.633 561.567 120.283 559.583 120.75 557.95L130.55 530.65C133.35 524.583 135.217 520.15 136.15 517.35C137.317 514.55 137.783 512.8 137.55 512.1C137.55 511.4 136.967 511.167 135.8 511.4C134.4 511.633 132.417 512.917 129.85 515.25C127.283 517.35 125.533 519.1 124.6 520.5C123.667 520.5 122.383 521.433 120.75 523.3C119.35 525.167 117.95 526.8 116.55 528.2C115.15 529.6 112.7 532.283 109.2 536.25C105.7 539.983 101.967 543.95 98 548.15C94.9667 550.95 91.4667 554.683 87.5 559.35C83.5333 564.017 80.0333 568.217 77 571.95C73.9667 575.683 72.1 577.55 71.4 577.55C67.2 577.317 63.35 575.917 59.85 573.35C56.5833 570.783 54.3667 567.633 53.2 563.9C51.8 561.333 51.6833 556.667 52.85 549.9C54.0167 542.9 56.2333 531.817 59.5 516.65C60.4333 513.15 61.25 510.117 61.95 507.55C62.8833 504.983 63.8167 502.417 64.75 499.85C65.6833 497.283 66.7333 494.367 67.9 491.1C69.3 487.833 71.05 483.867 73.15 479.2C74.3167 475.933 74.7833 472.9 74.55 470.1C74.3167 467.067 74.0833 464.617 73.85 462.75C73.85 459.25 74.9 456.45 77 454.35C79.3333 452.25 81.9 450.85 84.7 450.15C87.5 449.217 89.7167 448.983 91.35 449.45C97.8833 450.15 102.317 452.483 104.65 456.45C106.983 460.417 108.267 464.267 108.5 468C108.733 471.5 108.267 474.65 107.1 477.45C105.933 480.25 105 482.583 104.3 484.45L100.45 493.9C98.1167 499.267 96.3667 503.233 95.2 505.8C94.2667 508.133 93.6833 509.767 93.45 510.7C93.45 511.4 93.45 512.1 93.45 512.8C93.6833 513.5 94.7333 513.15 96.6 511.75C98.4667 510.35 100.683 508.483 103.25 506.15C106.05 503.583 108.617 501.367 110.95 499.5C115.15 496 119.583 492.5 124.25 489C129.15 485.267 133.933 482 138.6 479.2C143.267 476.4 147.117 474.533 150.15 473.6C154.117 474.3 157.733 476.283 161 479.55C164.5 482.817 166.717 485.617 167.65 487.95C168.817 491.45 168.933 494.6 168 497.4C167.3 500.2 166.717 502.767 166.25 505.1C166.017 506.033 165.55 507.783 164.85 510.35C164.15 512.917 163.45 515.367 162.75 517.7C162.05 519.8 161.7 520.85 161.7 520.85C161.7 520.85 162.4 520.15 163.8 518.75C165.2 517.35 167.067 515.717 169.4 513.85C171.733 511.75 174.067 509.883 176.4 508.25C188.067 499.383 197.283 493.783 204.05 491.45C211.05 488.883 217 490.867 221.9 497.4C224.7 499.967 226.45 503.467 227.15 507.9C228.083 512.333 228.55 518.283 228.55 525.75C228.783 528.783 229.017 532.167 229.25 535.9C229.717 539.633 230.183 542.9 230.65 545.7C231.35 548.5 231.933 550.25 232.4 550.95C233.1 551.883 234.383 552.817 236.25 553.75C238.117 554.45 239.867 555.033 241.5 555.5C244.767 557.133 246.517 560.167 246.75 564.6C247.217 568.8 245.583 572.067 241.85 574.4C238.35 576.5 234.617 577.783 230.65 578.25C226.917 578.717 223.067 578.833 219.1 578.6ZM244.068 676.95C238.934 677.883 235.434 678 233.568 677.3C231.701 676.6 229.134 675.433 225.868 673.8C223.301 671.933 221.434 670.533 220.268 669.6C219.101 668.667 218.284 667.733 217.818 666.8C215.484 661.9 215.134 658.283 216.768 655.95C218.401 653.617 220.734 652.1 223.768 651.4C227.034 650.933 229.834 650.7 232.168 650.7C233.801 651.633 236.484 652.1 240.218 652.1C244.184 652.1 246.634 651.633 247.568 650.7C247.568 650.7 248.618 650 250.718 648.6C253.051 647.433 256.084 646.5 259.818 645.8C267.051 642.3 272.768 638.683 276.968 634.95C281.168 631.45 285.834 625.383 290.968 616.75C293.068 613.483 295.284 609.633 297.618 605.2C299.951 601 301.584 596.8 302.518 592.6C304.384 587.933 306.484 581.633 308.818 573.7C311.384 565.767 313.601 557.95 315.468 550.25C317.334 542.317 318.384 536.367 318.618 532.4C320.018 519.333 322.701 506.733 326.668 494.6C330.634 482.233 333.784 469.167 336.118 455.4C337.518 452.133 338.568 450.267 339.268 449.8C339.968 449.1 341.484 448.75 343.818 448.75C346.384 448.75 349.418 449.567 352.918 451.2C356.418 452.6 358.984 454.583 360.618 457.15C362.951 461.583 364.001 466.833 363.768 472.9C363.768 478.733 362.251 483.867 359.218 488.3C356.884 491.567 354.784 496.7 352.918 503.7C351.284 510.467 349.651 518.983 348.018 529.25C346.851 534.383 345.568 540.45 344.168 547.45C343.001 554.217 341.718 561.8 340.318 570.2C339.384 572.533 338.101 576.15 336.468 581.05C334.834 585.717 333.784 589.45 333.318 592.25C333.084 593.183 332.384 595.05 331.218 597.85C330.051 600.65 328.884 603.333 327.718 605.9C326.551 608.7 325.734 610.567 325.268 611.5C314.068 634.133 301.118 650.467 286.418 660.5C271.951 670.533 257.834 676.017 244.068 676.95ZM273.468 577.9C270.901 577.9 268.218 576.5 265.418 573.7C262.851 570.9 261.101 568.683 260.168 567.05C259.234 564.717 257.484 562.5 254.918 560.4C252.351 558.3 250.134 555.733 248.268 552.7C246.401 549.667 245.934 545.933 246.868 541.5C247.801 538.467 249.201 533.917 251.068 527.85C252.934 521.55 255.151 514.667 257.718 507.2C260.284 499.5 262.851 491.917 265.418 484.45C268.218 476.983 270.784 470.333 273.118 464.5C275.451 458.667 277.434 454.583 279.068 452.25C280.468 450.383 282.684 448.983 285.718 448.05C288.751 447.117 291.784 446.883 294.818 447.35C297.851 447.817 300.068 449.217 301.468 451.55C304.034 454.817 305.434 458.083 305.668 461.35C306.134 464.383 304.501 469.283 300.768 476.05C299.834 478.617 298.668 481.417 297.268 484.45C295.868 487.25 295.168 489.117 295.168 490.05C294.934 490.517 294.468 492.15 293.768 494.95C293.301 497.517 292.718 499.967 292.018 502.3C291.318 504.633 290.618 505.8 289.918 505.8C288.984 506.733 287.934 509.183 286.768 513.15C285.834 517.117 284.901 521.55 283.968 526.45C283.268 531.117 282.801 535.317 282.568 539.05C282.334 542.55 282.684 544.3 283.618 544.3C290.851 544.3 297.851 542.083 304.618 537.65C311.384 532.983 318.734 525.283 326.668 514.55L329.818 547.45C326.551 549.083 323.518 550.833 320.718 552.7C317.918 554.333 315.351 556.317 313.018 558.65C312.318 559.583 310.684 560.867 308.118 562.5C305.551 564.133 302.984 565.65 300.418 567.05C298.084 568.217 296.568 568.8 295.868 568.8C295.868 568.8 295.518 568.917 294.818 569.15C294.351 569.15 294.118 569.617 294.118 570.55C294.118 571.017 292.601 571.95 289.568 573.35C286.534 574.517 283.384 575.567 280.118 576.5C276.851 577.433 274.634 577.9 273.468 577.9ZM407.105 608C395.671 607.767 388.321 604.5 385.055 598.2C382.021 592.133 381.205 584.433 382.605 575.1C384.005 570.667 384.821 566.7 385.055 563.2C385.521 559.467 386.571 557.133 388.205 556.2C388.205 556.2 388.321 555.85 388.555 555.15C389.021 554.45 388.905 553.75 388.205 553.05C388.205 550.017 389.255 545.817 391.355 540.45C391.821 539.05 392.405 537.417 393.105 535.55C394.038 533.45 394.505 532.4 394.505 532.4C393.338 530.533 393.338 529.017 394.505 527.85C395.671 526.683 396.838 525.633 398.005 524.7C399.405 523.533 399.521 522.25 398.355 520.85C397.888 519.917 398.471 517.817 400.105 514.55C401.738 511.05 403.605 507.433 405.705 503.7C407.805 499.967 409.205 497.05 409.905 494.95C409.905 494.483 410.488 492.85 411.655 490.05C412.821 487.25 414.221 483.983 415.855 480.25C417.488 476.517 419.005 473.133 420.405 470.1C422.038 467.067 423.088 465.083 423.555 464.15C425.888 462.983 424.955 462.167 420.755 461.7C416.555 461.233 412.121 461.117 407.455 461.35C400.221 461.117 394.388 460.767 389.955 460.3C385.755 459.833 382.255 458.783 379.455 457.15C376.655 453.883 376.305 450.033 378.405 445.6C380.505 440.933 383.888 438.483 388.555 438.25C391.588 438.017 393.921 437.9 395.555 437.9C397.421 437.9 399.755 437.783 402.555 437.55C405.588 437.083 410.255 436.5 416.555 435.8L434.405 434.4L435.455 428.45C437.321 425.417 438.605 423.433 439.305 422.5C440.005 421.567 440.471 420.633 440.705 419.7C440.938 418.533 441.288 416.55 441.755 413.75C441.755 413.75 442.805 411.883 444.905 408.15C447.005 404.183 448.288 400.1 448.755 395.9C451.555 391.233 454.005 387.033 456.105 383.3C458.205 379.333 459.488 376.883 459.955 375.95C463.921 370.117 467.771 366.967 471.505 366.5C475.471 366.033 479.205 366.967 482.705 369.3C484.805 370.467 486.788 371.983 488.655 373.85C490.521 375.483 491.688 377.7 492.155 380.5C492.621 383.067 491.571 386.45 489.005 390.65C488.538 391.583 487.838 393.333 486.905 395.9C485.971 398.233 485.271 400.217 484.805 401.85C483.405 403.483 481.655 406.167 479.555 409.9C477.688 413.4 476.405 417.017 475.705 420.75C473.838 424.717 472.671 427.167 472.205 428.1C471.738 429.033 471.038 429.5 470.105 429.5C470.571 431.833 471.971 433 474.305 433C476.638 432.767 480.488 432.533 485.855 432.3C490.288 431.833 493.321 431.367 494.955 430.9C496.821 430.2 498.921 430.433 501.255 431.6C502.421 433.233 503.005 435.683 503.005 438.95C503.238 441.983 502.888 445.017 501.955 448.05C501.021 450.85 499.738 452.6 498.105 453.3C496.938 453.3 494.488 454 490.755 455.4C487.255 456.567 482.821 457.267 477.455 457.5L458.905 459.25L452.955 471.15C451.321 474.183 449.921 476.983 448.755 479.55C447.588 481.883 446.771 483.283 446.305 483.75C446.305 485.15 445.488 487.25 443.855 490.05C442.455 492.85 440.938 495.883 439.305 499.15C437.905 503.117 436.271 506.733 434.405 510C432.771 513.267 431.955 514.9 431.955 514.9C431.021 514.9 430.555 515.6 430.555 517C431.721 519.8 431.371 521.9 429.505 523.3C428.338 524 427.288 525.05 426.355 526.45C425.655 527.617 425.305 528.2 425.305 528.2C426.238 529.133 426.355 530.3 425.655 531.7C425.188 533.1 424.488 534.617 423.555 536.25C423.555 538.117 422.971 540.8 421.805 544.3C420.871 547.8 419.821 551.067 418.655 554.1C418.888 558.3 419.121 560.983 419.355 562.15C419.588 563.317 420.171 563.783 421.105 563.55C422.271 563.783 423.905 563.783 426.005 563.55C428.105 563.317 429.621 563.2 430.555 563.2C434.055 561.567 432.421 569.733 425.655 587.7C421.921 593.533 418.188 598.317 414.455 602.05C410.721 606.017 408.271 608 407.105 608ZM497.074 577.55C494.974 575.917 492.64 573.817 490.074 571.25C487.74 568.683 486.924 565.067 487.624 560.4C488.324 553.867 489.257 548.15 490.424 543.25C491.59 538.117 492.99 532.283 494.624 525.75C495.09 522.95 496.257 518.167 498.124 511.4C500.224 504.633 502.674 497.283 505.474 489.35C508.274 481.417 511.19 473.95 514.224 466.95C517.257 459.717 519.94 454.35 522.274 450.85C524.84 448.517 528.574 447.35 533.474 447.35C538.607 447.35 542.107 448.283 543.974 450.15C546.54 452.25 547.357 455.983 546.424 461.35C545.49 466.483 542.224 474.533 536.624 485.5C535.457 488.3 533.94 491.333 532.074 494.6C530.44 497.633 529.274 500.2 528.574 502.3C527.874 504.167 528.107 504.983 529.274 504.75C530.674 502.183 533.24 499.267 536.974 496C540.707 492.5 544.674 489.117 548.874 485.85C553.074 482.583 557.041 479.667 560.774 477.1C564.507 474.533 567.074 472.9 568.474 472.2C570.341 471.033 572.441 470.1 574.774 469.4C577.341 468.467 579.091 467.767 580.024 467.3C585.39 464.733 591.224 463.8 597.524 464.5C604.057 464.967 608.024 466.95 609.424 470.45C609.657 472.317 610.357 473.717 611.524 474.65C612.924 475.583 613.624 476.05 613.624 476.05C614.557 476.05 615.024 476.4 615.024 477.1C615.257 477.8 615.374 478.15 615.374 478.15C615.374 479.783 613.741 482.117 610.474 485.15C607.44 488.183 604.057 489.817 600.324 490.05C597.291 490.283 594.607 490.867 592.274 491.8C589.941 492.733 587.14 493.9 583.874 495.3C575.007 500.433 566.957 504.983 559.724 508.95C552.724 512.917 545.49 518.983 538.024 527.15C536.391 529.017 534.641 530.767 532.774 532.4C530.907 534.033 529.04 536.367 527.174 539.4C526.007 540.567 524.84 543.133 523.674 547.1C522.507 551.067 521.457 554.917 520.524 558.65C519.824 562.15 519.474 564.25 519.474 564.95C519.474 564.95 519.124 566.117 518.424 568.45C517.724 570.55 516.557 572.65 514.924 574.75C512.124 578.483 509.324 580.817 506.524 581.75C503.957 582.683 500.807 581.283 497.074 577.55ZM684.097 580C677.097 583.967 669.63 586.3 661.697 587C653.997 587.467 646.764 586.417 639.997 583.85C633.23 581.05 627.747 576.967 623.547 571.6C621.214 568.567 618.997 563.783 616.897 557.25C614.797 550.483 614.447 541.383 615.847 529.95C617.247 519.217 620.514 508.367 625.647 497.4C631.014 486.433 637.547 476.75 645.247 468.35C652.947 459.95 661.347 454.233 670.447 451.2C673.714 450.033 676.98 449.217 680.247 448.75C683.747 448.05 688.297 447.933 693.897 448.4C699.264 449.1 704.047 450.5 708.247 452.6C712.447 454.467 715.48 456.567 717.347 458.9C721.08 462.633 723.53 466.25 724.697 469.75C725.864 473.25 726.33 476.633 726.097 479.9C724.93 487.367 721.547 495.417 715.947 504.05C710.58 512.683 702.997 519.1 693.197 523.3C689.23 524.933 684.564 525.983 679.197 526.45C673.83 526.917 666.48 526.217 657.147 524.35C651.547 523.183 647.814 523.767 645.947 526.1C644.314 528.433 643.614 532.983 643.847 539.75C644.314 543.95 645.247 547.683 646.647 550.95C648.28 553.983 651.197 556.083 655.397 557.25C660.764 558.183 664.614 558.3 666.947 557.6C669.28 556.667 672.197 555.383 675.697 553.75C677.564 552.583 679.314 551.3 680.947 549.9C682.814 548.5 684.564 547.1 686.197 545.7C688.064 544.3 689.58 543.25 690.747 542.55C691.914 541.617 693.08 541.033 694.247 540.8C695.414 540.567 696.58 540.45 697.747 540.45C700.314 540.683 702.764 542.083 705.097 544.65C707.43 547.217 708.947 549.667 709.647 552C709.647 553.867 708.48 556.55 706.147 560.05C703.814 563.317 700.664 566.817 696.697 570.55C692.964 574.05 688.764 577.2 684.097 580ZM679.547 501.95C681.18 501.25 683.514 499.617 686.547 497.05C689.814 494.483 692.73 491.8 695.297 489C697.864 485.967 699.147 483.633 699.147 482C699.147 479.433 697.397 477.217 693.897 475.35C690.63 473.483 686.314 473.133 680.947 474.3C679.08 474.767 676.864 476.05 674.297 478.15C671.73 480.25 669.164 482.7 666.597 485.5C664.03 488.067 661.814 490.633 659.947 493.2C658.08 495.533 656.797 497.4 656.097 498.8C657.03 499.967 658.897 500.9 661.697 501.6C664.497 502.3 667.53 502.65 670.797 502.65C674.297 502.65 677.214 502.417 679.547 501.95ZM743.241 581.05C739.041 578.017 735.541 574.167 732.741 569.5C730.175 564.833 728.658 559.467 728.191 553.4C727.491 549.433 728.891 544.417 732.391 538.35C736.125 532.05 741.258 525.517 747.791 518.75C754.558 511.75 762.025 505.217 770.191 499.15C779.991 492.85 786.875 488.533 790.841 486.2C795.041 483.867 797.375 482.35 797.841 481.65C798.541 480.95 798.425 480.017 797.491 478.85C796.791 477.917 795.041 477.45 792.241 477.45C789.675 477.217 786.175 476.867 781.741 476.4C778.941 476.633 776.725 476.75 775.091 476.75C773.691 476.75 771.825 476.867 769.491 477.1C767.158 477.333 763.191 478.033 757.591 479.2C753.391 479.433 750.008 479.433 747.441 479.2C745.108 478.733 743.125 477.683 741.491 476.05C740.325 473.95 739.275 471.383 738.341 468.35C737.641 465.317 737.875 463.45 739.041 462.75C739.508 460.183 741.375 457.617 744.641 455.05C748.141 452.25 754.208 450.383 762.841 449.45C764.708 449.683 768.325 449.8 773.691 449.8C779.291 449.8 785.475 450.267 792.241 451.2C802.041 452.367 809.625 453.533 814.991 454.7C820.358 455.633 824.208 456.917 826.541 458.55C829.108 460.183 830.741 462.517 831.441 465.55C832.841 469.05 832.958 473.017 831.791 477.45C830.858 481.883 828.058 486.667 823.391 491.8C818.958 496.933 812.075 502.417 802.741 508.25C796.441 512.683 791.308 516.417 787.341 519.45C783.375 522.483 779.991 525.4 777.191 528.2C774.625 531 771.708 534.267 768.441 538C763.308 544.3 759.691 548.383 757.591 550.25C755.725 551.883 756.541 553.283 760.041 554.45C760.975 555.383 762.608 555.967 764.941 556.2C767.275 556.2 769.608 556.083 771.941 555.85C773.808 555.85 776.025 555.85 778.591 555.85C781.391 555.617 783.141 555.733 783.841 556.2C785.708 557.133 788.158 557.133 791.191 556.2C794.458 555.267 797.841 554.333 801.341 553.4C802.741 553.167 804.958 552.933 807.991 552.7C811.025 552.467 814.058 552.233 817.091 552C820.125 551.533 822.341 551.067 823.741 550.6C826.308 549.667 829.225 549.317 832.491 549.55C835.991 549.55 838.208 549.55 839.141 549.55C840.541 550.717 841.358 552.933 841.591 556.2C841.825 559.467 841.125 562.733 839.491 566C837.858 569.267 834.941 571.367 830.741 572.3C823.975 574.633 819.308 576.267 816.741 577.2C814.408 577.9 812.308 578.133 810.441 577.9C806.008 579.067 800.525 579.883 793.991 580.35C787.458 580.817 780.808 581.167 774.041 581.4C767.275 581.4 761.091 581.4 755.491 581.4C749.891 581.167 745.808 581.05 743.241 581.05ZM874.992 582.1C873.125 582.567 870.675 582.8 867.642 582.8C864.608 582.567 861.925 582.217 859.592 581.75C857.492 581.05 856.442 580.35 856.442 579.65C856.442 578.483 855.858 577.9 854.692 577.9C854.692 577.9 853.408 576.967 850.842 575.1C848.275 573 845.942 571.483 843.842 570.55C841.742 567.283 840.342 563.55 839.642 559.35C839.175 554.917 840.575 547.217 843.842 536.25C844.075 528.783 846.175 520.967 850.142 512.8C854.108 504.4 859.125 496.233 865.192 488.3C871.258 480.367 877.558 473.367 884.092 467.3C890.625 461 896.458 456.333 901.592 453.3C904.858 450.033 909.175 448.283 914.542 448.05C920.142 447.817 925.042 448.867 929.242 451.2C931.575 452.367 934.142 454.7 936.942 458.2C939.742 461.7 942.425 465.433 944.992 469.4C947.558 473.133 949.542 476.517 950.942 479.55C951.642 482.117 952.225 484.45 952.692 486.55C953.392 488.417 953.858 490.75 954.092 493.55C954.325 496.35 954.092 500.55 953.392 506.15C952.225 510.35 951.175 514.667 950.242 519.1C949.542 523.3 949.192 527.617 949.192 532.05C948.725 536.483 949.192 539.633 950.592 541.5C952.225 543.367 954.558 543.483 957.592 541.85C960.392 540.45 963.308 540.333 966.342 541.5C969.375 542.433 971.475 544.3 972.642 547.1C974.042 549.667 973.692 553.05 971.592 557.25C970.192 560.283 967.975 563.2 964.942 566C961.908 568.8 958.525 571.133 954.792 573C951.058 574.633 947.442 575.45 943.942 575.45C941.375 575.45 938.808 574.517 936.242 572.65C933.675 570.55 931.342 567.75 929.242 564.25C927.142 560.75 925.392 556.9 923.992 552.7L921.892 544.65L909.292 556.2C906.258 559.467 903.225 562.5 900.192 565.3C897.392 567.867 895.642 569.733 894.942 570.9C893.775 573 891.442 574.867 887.942 576.5C884.675 578.133 880.358 580 874.992 582.1ZM884.442 548.5C888.408 546.167 891.792 543.367 894.592 540.1C897.625 536.833 900.542 533.217 903.342 529.25C906.142 525.05 909.175 520.617 912.442 515.95C916.408 510.583 919.208 506.267 920.842 503C922.708 499.733 924.108 496.233 925.042 492.5C924.108 489.933 922.825 487.25 921.192 484.45C919.558 481.417 917.925 479.783 916.292 479.55C913.025 479.55 909.058 481.533 904.392 485.5C899.958 489.467 895.058 495.183 889.692 502.65C888.758 503.817 887.592 505.683 886.192 508.25C884.792 510.817 883.392 513.267 881.992 515.6C880.825 517.7 880.008 519.1 879.542 519.8C878.842 520.733 877.792 522.95 876.392 526.45C875.225 529.717 874.175 533.1 873.242 536.6C872.308 539.867 871.842 542.2 871.842 543.6C871.842 545 871.958 546.517 872.192 548.15C872.658 549.783 873.825 550.833 875.692 551.3C877.558 551.767 880.475 550.833 884.442 548.5Z" fill="#FBFFFF"/>
<defs>
<linearGradient id="paint0_linear_12_2" x1="6.37781e-08" y1="510.042" x2="1024" y2="513.958" gradientUnits="userSpaceOnUse">
<stop offset="0.35" stop-color="#5616FD"/>
<stop offset="1" stop-color="#3106D1"/>
</linearGradient>
</defs>
</svg>
